<svg xmlns="http://www.w3.org/2000/svg" xmlns:xlink="http://www.w3.org/1999/xlink" width="500" zoomAndPan="magnify" viewBox="0 0 375 374.999991" height="500" preserveAspectRatio="xMidYMid meet" version="1.0"><defs><clipPath id="9068a6d3d7"><path d="M 21 74.253906 L 167.71875 74.253906 L 167.71875 259.398438 L 21 259.398438 Z M 21 74.253906 " clip-rule="nonzero"/></clipPath><clipPath id="5f68a049b6"><path d="M 26.515625 106.367188 C 32.050781 135.394531 34.972656 144.792969 38 154.296875 C 41.34375 164.632812 44.683594 174.03125 49.589844 186.769531 C 56.796875 205.5625 77.054688 249.316406 77.992188 255.789062 C 78.203125 256.832031 78.097656 257.144531 77.785156 257.667969 C 77.472656 258.292969 76.53125 259.027344 75.800781 259.128906 C 74.964844 259.128906 73.503906 258.503906 73.085938 257.773438 C 72.667969 256.9375 73.292969 255.789062 73.605469 254.117188 C 74.441406 250.464844 76.636719 244.304688 78.304688 236.472656 C 81.648438 221.644531 86.554688 188.441406 90.105469 170.898438 C 92.609375 159.097656 94.386719 146.671875 97.101562 141.242188 C 98.25 138.839844 99.398438 136.859375 100.753906 136.648438 C 102.113281 136.542969 103.679688 137.902344 105.351562 139.886719 C 109.839844 145.105469 116.628906 163.066406 122.472656 174.03125 C 128.113281 184.679688 135.109375 197.628906 139.910156 204.9375 C 142.730469 209.21875 145.65625 214.855469 147.222656 214.648438 C 148.160156 214.648438 148.472656 212.976562 149.207031 211.308594 C 150.875 206.816406 153.902344 194.808594 155.367188 186.140625 C 156.933594 177.371094 157.246094 169.4375 158.082031 158.890625 C 159.125 144.480469 160.378906 122.449219 160.585938 107.621094 C 160.691406 96.449219 158.5 82.875 159.960938 78.070312 C 160.585938 76.402344 161.527344 75.355469 162.363281 74.9375 C 163.09375 74.625 163.824219 74.730469 164.554688 75.042969 C 165.285156 75.460938 166.328125 76.503906 166.539062 77.339844 C 166.644531 78.28125 166.226562 79.636719 165.703125 80.367188 C 165.179688 80.890625 164.554688 81.308594 163.824219 81.308594 C 162.988281 81.414062 161.527344 80.996094 160.898438 80.367188 C 160.273438 79.742188 159.855469 78.28125 160.066406 77.339844 C 160.378906 76.402344 162.046875 74.835938 163.09375 74.835938 C 164.136719 74.730469 165.597656 75.566406 166.433594 77.027344 C 168.417969 80.996094 166.539062 93.003906 166.015625 104.59375 C 165.285156 124.746094 163.300781 167.453125 160.480469 187.082031 C 158.8125 198.359375 156.933594 207.757812 154.636719 213.289062 C 153.484375 216.109375 152.441406 218.199219 150.980469 219.242188 C 149.726562 220.183594 148.160156 220.496094 146.90625 220.285156 C 145.65625 220.078125 144.820312 219.660156 143.253906 218.199219 C 138.136719 213.289062 125.1875 189.066406 118.089844 176.222656 C 112.136719 165.675781 105.035156 152.207031 102.949219 146.882812 C 102.113281 144.898438 102.320312 142.707031 101.800781 142.707031 C 100.128906 142.707031 95.011719 170.6875 92.089844 185.726562 C 88.851562 202.222656 86.347656 224.671875 83.421875 237.722656 C 81.648438 245.765625 79.871094 254.011719 77.992188 257.144531 C 77.261719 258.292969 76.53125 258.921875 75.800781 259.128906 C 75.171875 259.234375 74.441406 259.027344 73.921875 258.710938 C 73.398438 258.292969 73.191406 257.875 72.5625 256.625 C 69.011719 249.941406 52.203125 207.027344 45.101562 188.335938 C 40.296875 175.597656 37.0625 167.242188 33.40625 155.757812 C 29.4375 143.121094 24.21875 124.746094 22.546875 115.765625 C 21.710938 111.378906 20.5625 107.621094 21.503906 105.847656 C 22.128906 104.800781 23.695312 104.070312 24.53125 104.28125 C 25.367188 104.382812 26.515625 106.367188 26.515625 106.367188 " clip-rule="nonzero"/></clipPath><clipPath id="dea2e63a8e"><path d="M 131.0625 115.121094 L 304.394531 115.121094 L 304.394531 128.585938 L 131.0625 128.585938 Z M 131.0625 115.121094 " clip-rule="nonzero"/></clipPath><clipPath id="5481677443"><path d="M 133.542969 118.480469 C 189.613281 114.929688 216.867188 114.824219 234.304688 115.453125 C 246.625 115.871094 254.980469 116.707031 265.734375 117.855469 C 277.429688 119.210938 297.058594 121.507812 301.757812 123.179688 C 303.011719 123.597656 303.53125 123.804688 303.949219 124.433594 C 304.265625 124.851562 304.367188 125.476562 304.367188 126 C 304.265625 126.519531 304.054688 127.25 303.636719 127.566406 C 303.117188 128.085938 301.96875 128.503906 301.339844 128.398438 C 300.714844 128.398438 300.191406 128.085938 299.773438 127.667969 C 299.355469 127.148438 298.9375 126 299.042969 125.265625 C 299.253906 124.535156 299.984375 123.703125 300.609375 123.386719 C 301.132812 123.074219 301.757812 122.96875 302.382812 123.285156 C 303.117188 123.597656 304.160156 124.953125 304.367188 125.789062 C 304.472656 126.3125 304.160156 126.9375 303.847656 127.355469 C 303.429688 127.878906 302.800781 128.296875 301.652344 128.503906 C 296.851562 129.132812 277.011719 124.015625 265.421875 122.550781 C 254.667969 121.300781 246.417969 120.671875 234.199219 120.253906 C 216.972656 119.628906 189.925781 119.734375 171.65625 120.464844 C 157.246094 121.089844 138.03125 125.582031 133.230469 123.597656 C 131.871094 122.96875 131.140625 121.71875 131.140625 120.882812 C 131.246094 120.046875 133.542969 118.480469 133.542969 118.480469 " clip-rule="nonzero"/></clipPath><clipPath id="9993609d6b"><path d="M 205.203125 119.316406 L 220.324219 119.316406 L 220.324219 279.316406 L 205.203125 279.316406 Z M 205.203125 119.316406 " clip-rule="nonzero"/></clipPath><clipPath id="12a4275f73"><path d="M 220.3125 122.03125 C 211.230469 273.644531 211.4375 276.777344 210.289062 278.34375 C 209.664062 279.074219 208.722656 279.386719 207.886719 279.28125 C 207.15625 279.28125 206.113281 278.550781 205.800781 277.925781 C 205.382812 277.296875 205.382812 276.046875 205.695312 275.417969 C 206.214844 274.6875 207.78125 273.75 208.617188 273.957031 C 209.558594 274.164062 210.707031 275.523438 210.8125 276.359375 C 211.019531 277.195312 210.394531 278.238281 209.871094 278.761719 C 209.246094 279.179688 208.097656 279.492188 207.367188 279.179688 C 206.53125 278.863281 205.800781 278.03125 205.484375 276.566406 C 204.234375 271.972656 207.992188 257.144531 208.828125 245.660156 C 209.871094 231.144531 209.558594 213.082031 210.496094 196.480469 C 211.4375 179.460938 214.046875 158.578125 214.675781 144.898438 C 215.195312 135.710938 213.628906 125.683594 215.09375 122.03125 C 215.71875 120.570312 216.554688 119.628906 217.390625 119.421875 C 218.121094 119.316406 219.164062 119.835938 219.582031 120.253906 C 220 120.671875 220.3125 122.03125 220.3125 122.03125 " clip-rule="nonzero"/></clipPath><clipPath id="1542100645"><path d="M 221.582031 136.507812 L 353.847656 136.507812 L 353.847656 300.472656 L 221.582031 300.472656 Z M 221.582031 136.507812 " clip-rule="nonzero"/></clipPath><clipPath id="e39da49516"><path d="M 249.289062 151.683594 C 238.636719 221.433594 238.847656 231.460938 238.636719 244.199219 C 238.429688 258.503906 240.726562 283.875 238.953125 289.621094 C 238.429688 291.082031 237.90625 291.8125 237.175781 292.230469 C 236.445312 292.542969 235.296875 292.335938 234.671875 291.917969 C 234.042969 291.5 233.730469 290.664062 233.523438 289.621094 C 232.894531 287.53125 233 283.667969 233.417969 279.386719 C 234.042969 272.285156 236.96875 263.097656 238.953125 250.984375 C 242.398438 229.476562 246.574219 176.847656 250.332031 160.875 C 251.691406 154.816406 252.316406 152.101562 254.613281 148.65625 C 256.597656 145.523438 259.625 142.914062 262.863281 141.035156 C 266.203125 139.050781 270.902344 138.109375 274.246094 137.484375 C 276.75 136.960938 278.628906 136.859375 280.925781 136.859375 C 283.222656 136.960938 285.730469 137.171875 288.027344 137.796875 C 290.324219 138.425781 292.726562 139.363281 294.710938 140.617188 C 296.695312 141.765625 298.46875 143.226562 300.035156 144.792969 C 301.601562 146.359375 303.0625 148.136719 304.210938 150.222656 C 305.359375 152.3125 306.195312 154.921875 306.613281 157.429688 C 307.03125 159.933594 306.925781 162.648438 306.507812 165.363281 C 306.089844 168.078125 305.359375 170.792969 304.109375 173.402344 C 302.75 176.222656 300.558594 179.042969 298.363281 181.546875 C 296.171875 184.261719 293.980469 186.457031 290.949219 188.960938 C 286.984375 192.09375 281.238281 195.644531 276.542969 198.359375 C 272.363281 200.65625 268.5 202.429688 264.21875 204.207031 C 259.523438 206.191406 252.210938 209.21875 249.289062 209.324219 C 248.140625 209.425781 247.304688 209.21875 246.78125 208.695312 C 246.261719 208.175781 245.84375 206.503906 246.050781 205.773438 C 246.261719 205.042969 246.78125 204.519531 247.929688 203.996094 C 251.898438 202.222656 267.980469 200.449219 277.792969 199.820312 C 287.191406 199.089844 297.214844 198.882812 305.570312 199.925781 C 312.773438 200.761719 320.292969 202.847656 325.199219 204.519531 C 328.226562 205.667969 329.792969 206.398438 332.40625 207.964844 C 335.746094 210.054688 340.132812 213.082031 343.160156 216.421875 C 346.1875 219.554688 348.695312 223.316406 350.46875 227.386719 C 352.242188 231.460938 353.390625 236.992188 353.390625 240.855469 C 353.496094 243.886719 352.972656 246.078125 352.140625 248.6875 C 351.199219 251.613281 349.738281 254.429688 348.066406 257.25 C 346.1875 260.382812 343.996094 263.621094 341.28125 266.542969 C 338.148438 269.886719 333.867188 273.226562 329.898438 276.148438 C 325.722656 279.28125 322.066406 281.996094 316.742188 284.710938 C 309.328125 288.367188 297.738281 292.4375 288.863281 294.734375 C 280.925781 296.824219 274.246094 297.765625 265.996094 298.703125 C 256.390625 299.644531 242.605469 300.375 234.671875 300.0625 C 229.867188 299.957031 224.644531 300.0625 222.976562 298.703125 C 222.140625 298.078125 221.828125 297.035156 221.929688 296.199219 C 222.035156 295.363281 223.394531 293.902344 224.230469 293.691406 C 224.960938 293.484375 226.210938 294.003906 226.734375 294.527344 C 227.257812 294.945312 227.570312 295.570312 227.570312 296.199219 C 227.570312 296.929688 227.152344 298.078125 226.628906 298.597656 C 226.210938 299.121094 225.585938 299.433594 224.960938 299.332031 C 224.125 299.226562 222.453125 298.183594 222.035156 297.449219 C 221.828125 296.929688 221.828125 296.199219 222.035156 295.675781 C 222.347656 294.945312 222.765625 294.214844 223.914062 293.796875 C 227.152344 292.542969 238.535156 294.945312 245.632812 294.945312 C 252.316406 294.945312 258.582031 294.734375 265.367188 294.003906 C 272.574219 293.273438 279.882812 292.230469 287.503906 290.246094 C 296.066406 288.054688 307.03125 284.191406 314.132812 280.746094 C 319.351562 278.132812 322.902344 275.523438 326.871094 272.601562 C 330.628906 269.78125 334.492188 266.855469 337.519531 263.722656 C 340.027344 261.007812 342.113281 257.980469 343.785156 255.265625 C 345.351562 252.761719 346.605469 250.253906 347.441406 247.851562 C 348.171875 245.660156 348.796875 243.886719 348.796875 241.378906 C 348.695312 238.140625 347.753906 233.339844 346.292969 229.789062 C 344.933594 226.238281 342.636719 222.898438 340.027344 219.972656 C 337.3125 217.050781 333.34375 214.125 330.316406 212.246094 C 328.019531 210.785156 326.558594 210.160156 323.84375 209.113281 C 319.246094 207.546875 311 205.667969 305.257812 204.832031 C 300.558594 204.101562 296.484375 204.101562 291.996094 204.101562 C 287.503906 204.101562 283.851562 204.3125 278.523438 204.832031 C 270.484375 205.667969 252.839844 210.160156 248.664062 209.425781 C 247.410156 209.21875 246.78125 208.90625 246.363281 208.277344 C 245.949219 207.652344 245.84375 206.398438 246.050781 205.773438 C 246.261719 205.144531 247.304688 204.207031 247.304688 204.3125 C 247.410156 204.3125 246.363281 205.773438 246.46875 205.773438 C 246.574219 205.878906 247.511719 204.519531 248.871094 203.789062 C 252.109375 201.910156 261.503906 200.34375 267.664062 197.523438 C 274.453125 194.390625 282.074219 190.109375 287.609375 185.515625 C 292.515625 181.546875 297.320312 175.910156 299.617188 171.941406 C 300.976562 169.4375 301.289062 167.347656 301.707031 165.15625 C 302.125 163.066406 302.332031 160.875 302.019531 158.785156 C 301.808594 156.800781 301.394531 154.921875 300.242188 153.042969 C 298.679688 150.433594 295.230469 146.882812 292.726562 145.105469 C 290.949219 143.855469 289.28125 143.332031 287.296875 142.808594 C 285.417969 142.289062 283.851562 141.871094 281.34375 141.972656 C 277.375 142.183594 269.753906 143.75 265.785156 145.734375 C 262.96875 147.195312 260.878906 148.867188 259.207031 151.164062 C 257.222656 153.980469 256.390625 156.382812 255.03125 161.710938 C 251.167969 176.847656 246.992188 232.921875 243.859375 251.925781 C 242.398438 260.90625 240.726562 264.976562 239.890625 271.449219 C 239.160156 277.714844 240.308594 287.324219 238.847656 290.246094 C 238.21875 291.5 237.386719 292.230469 236.550781 292.335938 C 235.820312 292.4375 234.773438 292.335938 234.148438 291.394531 C 231.015625 286.90625 233.730469 248.269531 234.042969 232.816406 C 234.355469 222.585938 234.253906 217.46875 235.191406 207.445312 C 236.757812 192.199219 240.414062 156.070312 244.277344 150.535156 C 245.214844 149.179688 246.46875 148.761719 247.304688 148.96875 C 248.140625 149.074219 249.289062 151.683594 249.289062 151.683594 " clip-rule="nonzero"/></clipPath></defs><rect x="-37.5" width="450" fill="#ffffff" y="-37.499999" height="449.999989" fill-opacity="1"/><rect x="-37.5" width="450" fill="#ffffff" y="-37.499999" height="449.999989" fill-opacity="1"/><g clip-path="url(#9068a6d3d7)"><g clip-path="url(#5f68a049b6)"><path fill="#ff914d" d="M 17.328125 70.65625 L 170.714844 70.65625 L 170.714844 263.589844 L 17.328125 263.589844 Z M 17.328125 70.65625 " fill-opacity="1" fill-rule="nonzero"/></g></g><g clip-path="url(#dea2e63a8e)"><g clip-path="url(#5481677443)"><path fill="#ff914d" d="M 126.964844 111.277344 L 308.578125 111.277344 L 308.578125 132.679688 L 126.964844 132.679688 Z M 126.964844 111.277344 " fill-opacity="1" fill-rule="nonzero"/></g></g><g clip-path="url(#9993609d6b)"><g clip-path="url(#12a4275f73)"><path fill="#ff914d" d="M 201.308594 115.242188 L 224.488281 115.242188 L 224.488281 283.574219 L 201.308594 283.574219 Z M 201.308594 115.242188 " fill-opacity="1" fill-rule="nonzero"/></g></g><g clip-path="url(#1542100645)"><g clip-path="url(#e39da49516)"><path fill="#ff914d" d="M 217.753906 132.679688 L 357.671875 132.679688 L 357.671875 304.300781 L 217.753906 304.300781 Z M 217.753906 132.679688 " fill-opacity="1" fill-rule="nonzero"/></g></g></svg>